<svg width="308" height="308" viewBox="0 0 308 308" fill="none" xmlns="http://www.w3.org/2000/svg">
<path d="M201.573 2.04788C202.08 3.2828 201.65 4.40344 201.316 5.62961C201.22 5.99288 201.22 5.99288 201.123 6.36348C200.909 7.17633 200.691 7.98803 200.473 8.7998C200.32 9.38032 200.166 9.96092 200.013 10.5416C199.682 11.7942 199.35 13.0464 199.016 14.2982C198.481 16.3021 197.95 18.307 197.42 20.3121C196.773 22.7565 196.126 25.2007 195.477 27.6447C194.351 31.8888 193.231 36.1347 192.117 40.382C191.998 40.8353 191.998 40.8353 191.876 41.2978C191.478 42.8165 191.08 44.3353 190.681 45.8542C189.957 48.6182 189.23 51.3818 188.504 54.1455C187.2 59.1099 185.897 64.0744 184.594 69.039C183.858 71.8417 183.123 74.6442 182.387 77.4468C182.307 77.7522 182.227 78.0575 182.144 78.3721C180.295 85.4142 178.444 92.4557 176.586 99.4954C176.467 99.9464 176.467 99.9464 176.346 100.407C175.646 103.058 174.946 105.709 174.246 108.36C172.137 116.346 172.137 116.346 170.052 124.337C169.909 124.887 169.909 124.887 169.764 125.447C169.344 127.068 168.925 128.689 168.507 130.311C168.436 130.586 168.365 130.862 168.292 131.145C168.163 131.644 168.035 132.143 167.908 132.641C167.498 134.228 167.498 134.228 167.165 134.894C167.364 134.908 167.563 134.922 167.769 134.936C173.162 135.321 178.546 135.771 183.931 136.26C184.527 136.314 185.123 136.368 185.719 136.422C187.575 136.589 189.432 136.758 191.288 136.927C193.198 137.101 195.108 137.273 197.018 137.445C198.672 137.594 200.325 137.744 201.979 137.894C202.961 137.983 203.944 138.072 204.926 138.16C206.012 138.258 207.098 138.357 208.184 138.457C208.507 138.485 208.831 138.514 209.165 138.544C209.458 138.571 209.752 138.598 210.055 138.626C210.311 138.65 210.567 138.673 210.83 138.697C211.447 138.783 211.447 138.783 212.045 139.082C211.666 140.081 211.238 140.993 210.695 141.912C210.545 142.167 210.395 142.422 210.24 142.685C210.077 142.959 209.913 143.232 209.745 143.514C209.573 143.804 209.401 144.094 209.224 144.393C207.792 146.794 206.315 149.165 204.827 151.531C203.358 153.869 201.918 156.224 200.489 158.587C198.844 161.304 197.188 164.013 195.512 166.711C194.33 168.615 193.162 170.528 191.999 172.443C190.518 174.882 189.024 177.313 187.521 179.738C184.511 184.59 181.522 189.455 178.558 194.335C177.255 196.479 175.936 198.613 174.613 200.744C173.416 202.674 172.233 204.612 171.055 206.553C169.561 209.013 168.053 211.464 166.535 213.909C165.338 215.839 164.155 217.776 162.976 219.717C161.482 222.177 159.975 224.628 158.457 227.074C157.26 229.004 156.076 230.941 154.898 232.882C153.404 235.342 151.896 237.793 150.378 240.238C149.181 242.168 147.998 244.106 146.819 246.047C145.325 248.507 143.818 250.958 142.3 253.403C141.103 255.333 139.919 257.271 138.741 259.212C137.247 261.672 135.739 264.123 134.221 266.568C133.024 268.498 131.841 270.436 130.662 272.377C129.181 274.816 127.688 277.247 126.184 279.671C123.177 284.521 120.189 289.383 117.227 294.26C115.877 296.481 114.513 298.692 113.14 300.899C112.992 301.137 112.844 301.375 112.691 301.62C112.548 301.851 112.404 302.082 112.255 302.32C111.938 302.84 111.628 303.364 111.323 303.891C111.164 304.165 111.004 304.44 110.84 304.722C110.697 304.974 110.553 305.225 110.405 305.485C110.277 305.667 110.149 305.849 110.017 306.037C109.82 306.037 109.622 306.037 109.419 306.037C110.303 301.939 111.29 297.87 112.31 293.804C112.477 293.138 112.643 292.472 112.81 291.806C113.16 290.406 113.511 289.006 113.862 287.606C114.293 285.884 114.724 284.162 115.155 282.44C116.715 276.2 118.28 269.96 119.865 263.726C119.967 263.326 120.069 262.926 120.17 262.525C120.221 262.324 120.273 262.123 120.325 261.916C122.876 251.885 125.396 241.847 127.902 231.806C128.173 230.718 128.445 229.63 128.716 228.542C130.39 221.838 132.062 215.134 133.733 208.429C134.569 205.076 135.406 201.722 136.243 198.368C136.767 196.27 137.29 194.171 137.813 192.072C138.135 190.778 138.458 189.484 138.782 188.19C138.931 187.593 139.08 186.995 139.228 186.398C139.431 185.582 139.635 184.766 139.84 183.95C139.897 183.716 139.955 183.482 140.014 183.241C140.413 181.659 140.898 180.118 141.434 178.577C141.157 178.561 140.881 178.545 140.596 178.528C137.995 178.367 135.417 178.128 132.83 177.809C132.446 177.763 132.062 177.717 131.666 177.669C130.629 177.544 129.592 177.418 128.555 177.291C127.464 177.158 126.372 177.026 125.281 176.893C123.454 176.672 121.626 176.45 119.799 176.226C117.688 175.969 115.577 175.713 113.465 175.457C111.427 175.21 109.388 174.963 107.349 174.715C106.485 174.609 105.619 174.504 104.754 174.4C103.55 174.254 102.345 174.107 101.141 173.959C100.783 173.916 100.425 173.873 100.056 173.828C99.7288 173.788 99.4013 173.748 99.0639 173.706C98.6375 173.654 98.6375 173.654 98.2024 173.601C97.5361 173.503 96.903 173.369 96.254 173.191C96.7288 171.305 97.7981 169.798 98.8346 168.18C99.2444 167.533 99.6538 166.885 100.063 166.237C100.169 166.071 100.274 165.904 100.383 165.733C101.51 163.953 102.613 162.159 103.715 160.363C104.012 159.881 104.012 159.881 104.314 159.389C104.716 158.734 105.119 158.079 105.521 157.425C106.539 155.767 107.558 154.11 108.577 152.453C108.777 152.129 108.976 151.806 109.181 151.472C111.205 148.184 113.238 144.901 115.272 141.619C117.422 138.15 119.566 134.676 121.704 131.2C123.097 128.935 124.494 126.673 125.895 124.413C127.189 122.324 128.477 120.232 129.765 118.138C132.008 114.491 134.26 110.85 136.516 107.211C138.666 103.741 140.809 100.268 142.947 96.7913C144.34 94.5267 145.738 92.265 147.138 90.0051C148.432 87.916 149.721 85.8234 151.008 83.7301C153.251 80.0829 155.503 76.4417 157.759 72.8025C159.703 69.6662 161.642 66.5272 163.575 63.3843C165.817 59.7372 168.07 56.096 170.326 52.4567C172.476 48.9875 174.619 45.514 176.757 42.0373C178.15 39.7727 179.547 37.511 180.948 35.2511C182.242 33.162 183.531 31.0694 184.818 28.9761C187.061 25.3289 189.313 21.6877 191.569 18.0485C192.043 17.2841 192.516 16.5196 192.99 15.7551C193.225 15.3758 193.225 15.3758 193.465 14.9889C194.392 13.4912 195.316 11.9915 196.237 10.4898C196.451 10.1402 196.666 9.79066 196.88 9.44108C197.293 8.76905 197.704 8.09662 198.116 7.42395C199.231 5.60573 200.373 3.81156 201.573 2.04788Z" fill="white"/>
</svg>
