<svg width="60" height="46" viewBox="0 0 60 46" fill="none" xmlns="http://www.w3.org/2000/svg">
<path d="M50.7922 3.84282C46.9024 2.06436 42.7974 0.796191 38.58 0.070064C38.5416 0.0626005 38.5017 0.0675021 38.4662 0.0840623C38.4307 0.100622 38.4014 0.127985 38.3825 0.162204C37.8575 1.09605 37.2726 2.3138 36.8626 3.27504C32.3163 2.58719 27.6918 2.58719 23.1455 3.27504C22.6892 2.20995 22.1743 1.17076 21.603 0.162204C21.5833 0.128751 21.5539 0.102037 21.5186 0.0855869C21.4834 0.0691368 21.4439 0.0637243 21.4055 0.070064C17.1878 0.794682 13.0826 2.06291 9.19338 3.84282C9.16045 3.85658 9.13253 3.88004 9.11338 3.91006C1.3336 15.4873 -0.798836 26.7782 0.248633 37.9271C0.251178 37.9548 0.259363 37.9816 0.272689 38.006C0.286014 38.0304 0.304199 38.0519 0.326131 38.0691C4.85499 41.4115 9.92113 43.963 15.3082 45.6146C15.3462 45.6255 15.3866 45.6247 15.4241 45.6123C15.4616 45.5998 15.4944 45.5763 15.5182 45.5448C16.6763 43.9772 17.7015 42.3163 18.5831 40.5792C18.5954 40.5555 18.6025 40.5294 18.6039 40.5027C18.6053 40.476 18.6011 40.4493 18.5914 40.4243C18.5817 40.3994 18.5668 40.3768 18.5477 40.358C18.5286 40.3392 18.5058 40.3246 18.4806 40.3153C16.8642 39.6991 15.2994 38.9563 13.8007 38.094C13.7733 38.0781 13.7502 38.0558 13.7334 38.0289C13.7167 38.002 13.707 37.9715 13.705 37.9399C13.703 37.9084 13.7089 37.8768 13.7221 37.8481C13.7353 37.8193 13.7555 37.7943 13.7807 37.7752C14.0963 37.54 14.4064 37.2976 14.7107 37.048C14.7373 37.0265 14.7694 37.0128 14.8034 37.0084C14.8374 37.004 14.872 37.0091 14.9032 37.0231C24.7229 41.4882 35.3526 41.4882 45.0573 37.0231C45.0889 37.0086 45.1239 37.0033 45.1584 37.0077C45.1929 37.0121 45.2255 37.0261 45.2523 37.048C45.5523 37.2921 45.8673 37.5411 46.1848 37.7752C46.2098 37.794 46.2298 37.8186 46.2431 37.8468C46.2564 37.8751 46.2626 37.9061 46.2611 37.9373C46.2596 37.9684 46.2505 37.9988 46.2346 38.0256C46.2187 38.0525 46.1965 38.0751 46.1698 38.0915C44.6746 38.9619 43.1082 39.705 41.4874 40.3128C41.4622 40.3224 41.4393 40.3372 41.4202 40.3563C41.4011 40.3753 41.3862 40.3981 41.3765 40.4232C41.3669 40.4484 41.3626 40.4753 41.3641 40.5021C41.3655 40.529 41.3726 40.5553 41.3849 40.5792C42.2849 42.3174 43.3149 43.971 44.4474 45.5423C44.4707 45.5744 44.5034 45.5983 44.5411 45.6108C44.5788 45.6233 44.6194 45.6238 44.6574 45.6121C50.0534 43.9656 55.1278 41.4138 59.6619 38.0666C59.684 38.051 59.7025 38.031 59.7163 38.0078C59.7301 37.9846 59.7388 37.9588 59.7419 37.9321C60.9919 25.04 57.647 13.8412 50.8697 3.91504C50.8538 3.88156 50.8263 3.85749 50.7922 3.84282ZM20.0506 31.1361C17.0931 31.1361 14.6582 28.4342 14.6582 25.1122C14.6582 21.7927 17.0481 19.0882 20.0506 19.0882C23.0755 19.0882 25.4904 21.8176 25.4429 25.1147C25.4429 28.4342 23.053 31.1361 20.0506 31.1361ZM39.9875 31.1361C37.0301 31.1361 34.5951 28.4342 34.5951 25.1122C34.5951 21.7927 36.9826 19.0882 39.9875 19.0882C43.0124 19.0882 45.4273 21.8176 45.3798 25.1147C45.3798 28.4342 43.0149 31.1361 39.9875 31.1361Z" fill="#D9D9D9"/>
</svg>
