<svg width="60" height="60" viewBox="0 0 60 60" fill="none" xmlns="http://www.w3.org/2000/svg">
<g clip-path="url(#clip0_112_336)">
<path d="M29.9995 -3.05176e-05C13.4315 -3.05176e-05 0.000183105 13.4317 0.000183105 29.9997C0.000183105 46.5672 13.4315 60 29.9995 60C46.5675 60 59.9998 46.5672 59.9998 29.9997C59.9998 13.4317 46.5675 -3.05176e-05 29.9995 -3.05176e-05ZM30.0001 10.5373L47.7529 21.6074H12.2473L30.0001 10.5373ZM47.9741 39.285H47.9723C47.9723 41.0606 46.5333 42.4994 44.7578 42.4994H15.2423C13.4667 42.4994 12.0279 41.0604 12.0279 39.285V22.3118C12.0279 22.124 12.0471 21.9414 12.0783 21.762L29.0401 32.3387C29.0609 32.3517 29.0831 32.3605 29.1045 32.3725C29.1269 32.3849 29.1497 32.3969 29.1725 32.4083C29.2923 32.4701 29.4157 32.5199 29.5419 32.5525C29.5549 32.5561 29.5679 32.5577 29.5809 32.5607C29.7193 32.5933 29.8595 32.6137 29.9995 32.6137H30.0005C30.0015 32.6137 30.0025 32.6137 30.0025 32.6137C30.1425 32.6137 30.2827 32.5939 30.4211 32.5607C30.4341 32.5575 30.4471 32.5561 30.4601 32.5525C30.5861 32.5199 30.7091 32.4701 30.8295 32.4083C30.8523 32.3969 30.8751 32.3849 30.8975 32.3725C30.9187 32.3605 30.9411 32.3517 30.9619 32.3387L47.9237 21.762C47.9549 21.9414 47.9741 22.1236 47.9741 22.3118V39.285Z" fill="#D9D9D9"/>
</g>
<defs>
<clipPath id="clip0_112_336">
<rect width="60" height="60" fill="white"/>
</clipPath>
</defs>
</svg>
