<svg width="58" height="58" viewBox="0 0 58 58" fill="none" xmlns="http://www.w3.org/2000/svg">
<g clip-path="url(#clip0_112_364)">
<path d="M40.7205 0H17.2795C12.6978 0.00349122 8.30469 1.82504 5.06491 5.06468C1.82513 8.30431 0.00349138 12.6972 0 17.2787V40.7186C0.00279312 45.3006 1.82412 49.6942 5.06398 52.9344C8.30383 56.1746 12.6973 57.9965 17.2795 58H40.7205C45.3025 57.9958 49.6955 56.1737 52.9353 52.9336C56.175 49.6936 57.9965 45.3004 58 40.7186V17.2787C57.9979 12.6968 56.1767 8.30307 52.9366 5.06314C49.6966 1.8232 45.3027 0.00209589 40.7205 0ZM52.1681 40.7186C52.1674 43.7544 50.9611 46.6656 48.8144 48.8122C46.6677 50.9588 43.7564 52.165 40.7205 52.1657H17.2795C15.7763 52.1657 14.2878 51.8696 12.8991 51.2943C11.5104 50.719 10.2486 49.8758 9.18576 48.8128C8.12296 47.7498 7.27999 46.4879 6.70498 45.099C6.12997 43.7102 5.83419 42.2218 5.83454 40.7186V17.2787C5.83419 15.7757 6.12999 14.2874 6.70503 12.8987C7.28007 11.5101 8.12309 10.2483 9.18592 9.1855C10.2488 8.12272 11.5106 7.27974 12.8993 6.70472C14.288 6.12971 15.7764 5.83393 17.2795 5.83427H40.7205C43.7557 5.83497 46.6663 7.04095 48.8125 9.18705C50.9587 11.3331 52.1648 14.2437 52.1655 17.2787L52.1681 40.7186Z" fill="#D9D9D9"/>
<path d="M28.4124 14.3058C20.0514 14.3058 13.2571 21.1311 13.2571 29.5243C13.2571 37.9175 20.0541 44.7429 28.4124 44.7429C36.7707 44.7429 43.5676 37.9175 43.5676 29.5243C43.5676 21.1311 36.7734 14.3058 28.4124 14.3058ZM28.4124 38.8219C25.9568 38.8222 23.6016 37.843 21.865 36.0996C20.1284 34.3563 19.1525 31.9915 19.1522 29.5257C19.1518 27.0598 20.127 24.6948 21.8631 22.9509C23.5992 21.2071 25.9541 20.2272 28.4097 20.2268C30.8653 20.2265 33.2205 21.2057 34.9571 22.949C36.6938 24.6924 37.6696 27.0571 37.6699 29.523C37.6703 31.9889 36.6951 34.3539 34.959 36.0977C33.2229 37.8416 30.868 38.8215 28.4124 38.8219ZM43.5996 10.7714C44.3177 10.772 45.0194 10.9862 45.6162 11.3871C46.213 11.788 46.6781 12.3576 46.9526 13.0239C47.2272 13.6901 47.2989 14.4231 47.1587 15.1303C47.0184 15.8375 46.6726 16.487 46.1649 16.9969C45.6572 17.5067 45.0103 17.854 44.3061 17.9948C43.6019 18.1356 42.8719 18.0636 42.2084 17.7879C41.5449 17.5122 40.9777 17.0452 40.5785 16.4459C40.1792 15.8466 39.9659 15.1419 39.9653 14.4209C39.9653 12.4089 41.3242 10.7714 43.5996 10.7714Z" fill="#D9D9D9"/>
</g>
<defs>
<clipPath id="clip0_112_364">
<rect width="58" height="58" fill="white"/>
</clipPath>
</defs>
</svg>
