<svg width="53" height="23" viewBox="0 0 53 23" fill="none" xmlns="http://www.w3.org/2000/svg">
<path d="M0.392045 22V6.72727H5.88068V22H0.392045ZM3.13636 5.13636C2.39394 5.13636 1.75758 4.8911 1.22727 4.40057C0.69697 3.91004 0.431818 3.32008 0.431818 2.63068C0.431818 1.94129 0.69697 1.35133 1.22727 0.860795C1.75758 0.370265 2.39394 0.125 3.13636 0.125C3.88542 0.125 4.52178 0.370265 5.04545 0.860795C5.57576 1.35133 5.84091 1.94129 5.84091 2.63068C5.84091 3.32008 5.57576 3.91004 5.04545 4.40057C4.52178 4.8911 3.88542 5.13636 3.13636 5.13636ZM17.7852 6.72727V10.7045H7.72266V6.72727H17.7852ZM9.67152 3.06818H15.1602V17.0881C15.1602 17.3002 15.1966 17.4792 15.2695 17.625C15.3424 17.7642 15.4551 17.8703 15.6076 17.9432C15.7601 18.0095 15.9556 18.0426 16.1942 18.0426C16.36 18.0426 16.5522 18.0227 16.771 17.983C16.9963 17.9432 17.1621 17.91 17.2681 17.8835L18.0636 21.7415C17.8183 21.8144 17.467 21.9039 17.0096 22.0099C16.5588 22.116 16.0219 22.1856 15.3988 22.2188C14.1393 22.285 13.082 22.1558 12.2269 21.831C11.3718 21.4995 10.7288 20.9792 10.2979 20.2699C9.86707 19.5606 9.65826 18.6723 9.67152 17.6051V3.06818ZM27.2188 22.2784C25.5616 22.2784 24.143 21.9503 22.9631 21.294C21.7831 20.6312 20.8783 19.7098 20.2486 18.5298C19.6188 17.3433 19.304 15.9678 19.304 14.4034C19.304 12.839 19.6188 11.4669 20.2486 10.2869C20.8783 9.10038 21.7831 8.17898 22.9631 7.52273C24.143 6.85985 25.5616 6.52841 27.2188 6.52841C28.7169 6.52841 30.0128 6.80019 31.1065 7.34375C32.2069 7.88068 33.0587 8.64299 33.6619 9.63068C34.2652 10.6117 34.5701 11.7652 34.5767 13.0909H29.4858C29.4129 12.2888 29.1809 11.679 28.7898 11.2614C28.4053 10.8371 27.9081 10.625 27.2983 10.625C26.821 10.625 26.4034 10.7642 26.0455 11.0426C25.6875 11.3144 25.4091 11.7287 25.2102 12.2855C25.0114 12.8357 24.9119 13.5284 24.9119 14.3636C24.9119 15.1989 25.0114 15.8949 25.2102 16.4517C25.4091 17.0019 25.6875 17.4162 26.0455 17.6946C26.4034 17.9664 26.821 18.1023 27.2983 18.1023C27.7027 18.1023 28.0606 18.0095 28.3722 17.8239C28.6837 17.6316 28.9356 17.3532 29.1278 16.9886C29.3267 16.6174 29.446 16.1667 29.4858 15.6364H34.5767C34.5568 16.982 34.2486 18.1553 33.652 19.1562C33.0554 20.1506 32.2102 20.9195 31.1165 21.4631C30.0294 22.0066 28.7301 22.2784 27.2188 22.2784ZM42.3299 13.4091V22H36.8413V1.63636H42.131V9.63068H42.2901C42.6348 8.65625 43.2082 7.89725 44.0103 7.35369C44.8124 6.8035 45.7769 6.52841 46.9038 6.52841C47.9843 6.52841 48.9222 6.77367 49.7177 7.2642C50.5198 7.75473 51.1396 8.43087 51.5771 9.29261C52.0212 10.1544 52.2399 11.142 52.2333 12.2557V22H46.7447V13.4091C46.7513 12.6534 46.5624 12.0601 46.1779 11.6293C45.8001 11.1984 45.2598 10.983 44.5572 10.983C44.113 10.983 43.7219 11.0824 43.3839 11.2812C43.0524 11.4735 42.7939 11.7519 42.6083 12.1165C42.4293 12.4744 42.3365 12.9053 42.3299 13.4091Z" fill="#D9D9D9"/>
</svg>
