<svg width="48" height="48" viewBox="0 0 48 48" fill="none" xmlns="http://www.w3.org/2000/svg">
<g clip-path="url(#clip0_112_346)">
<path d="M11.1731 15.4421H1.53707C1.10941 15.4421 0.762878 15.7887 0.762878 16.2163V47.1728C0.762878 47.6005 1.10941 47.947 1.53707 47.947H11.1731C11.6008 47.947 11.9473 47.6005 11.9473 47.1728V16.2163C11.9473 15.7887 11.6008 15.4421 11.1731 15.4421Z" fill="#D9D9D9"/>
<path d="M6.35861 0.0527954C2.85244 0.0527954 0 2.90214 0 6.40443C0 9.90828 2.85244 12.7587 6.35861 12.7587C9.86199 12.7587 12.7121 9.90812 12.7121 6.40443C12.7123 2.90214 9.86199 0.0527954 6.35861 0.0527954Z" fill="#D9D9D9"/>
<path d="M35.6832 14.6727C31.813 14.6727 28.9521 16.3364 27.2168 18.2268V16.2163C27.2168 15.7887 26.8703 15.4421 26.4426 15.4421H17.2144C16.7867 15.4421 16.4402 15.7887 16.4402 16.2163V47.1728C16.4402 47.6005 16.7867 47.947 17.2144 47.947H26.8294C27.2571 47.947 27.6036 47.6005 27.6036 47.1728V31.8565C27.6036 26.6953 29.0055 24.6845 32.6033 24.6845C36.5217 24.6845 36.8331 27.908 36.8331 32.1221V47.173C36.8331 47.6007 37.1796 47.9472 37.6073 47.9472H47.2258C47.6535 47.9472 48 47.6007 48 47.173V30.1928C48 22.5182 46.5366 14.6727 35.6832 14.6727Z" fill="#D9D9D9"/>
</g>
<defs>
<clipPath id="clip0_112_346">
<rect width="48" height="48" fill="white"/>
</clipPath>
</defs>
</svg>
