<svg width="60" height="60" viewBox="0 0 60 60" fill="none" xmlns="http://www.w3.org/2000/svg">
<path d="M24.2474 38.3606V21.6413L38.9456 30.0019L24.2474 38.3606ZM56.94 16.3781C56.2762 13.9388 54.4012 12.0525 52.0181 11.385L51.9674 11.3738C45.9806 10.6125 39.0562 10.1775 32.0287 10.1775C31.3143 10.1775 30.6018 10.1813 29.8912 10.1906L29.9999 10.1888C29.3962 10.1813 28.6856 10.1756 27.9712 10.1756C20.9437 10.1756 14.0156 10.6106 7.21495 11.4525L8.0287 11.37C5.59682 12.0506 3.72182 13.935 3.0712 16.3256L3.05995 16.3744C2.30995 20.3288 1.88245 24.8794 1.88245 29.5294C1.88245 29.6944 1.88245 29.8594 1.88432 30.0225V29.9963C1.88432 30.135 1.88245 30.3 1.88245 30.465C1.88245 35.115 2.31182 39.6638 3.1312 44.0756L3.05995 43.6181C3.7237 46.0575 5.5987 47.9438 7.98182 48.6113L8.03245 48.6225C14.0193 49.3837 20.9437 49.8188 27.9712 49.8188C28.6837 49.8188 29.3962 49.815 30.1087 49.8056L29.9999 49.8075C30.6037 49.815 31.3162 49.8206 32.0287 49.8206C39.0581 49.8206 45.9843 49.3856 52.785 48.5437L51.9712 48.6263C54.405 47.9475 56.28 46.0613 56.9325 43.6706L56.9437 43.6219C57.6918 39.6675 58.1193 35.1169 58.1193 30.4688C58.1193 30.3038 58.1193 30.1388 58.1175 29.9756V30C58.1175 29.8613 58.1193 29.6963 58.1193 29.5313C58.1193 24.8813 57.6899 20.3325 56.8706 15.9206L56.94 16.3781Z" fill="#D9D9D9"/>
</svg>
