<svg xmlns="http://www.w3.org/2000/svg" width="1024" height="1024" viewBox="0 0 1024 1024">
  <defs>
    <style>
      .cls-1 {
        fill: #b3818b;
        fill-rule: evenodd;
      }
    </style>
  </defs>
  <path id="Flower_2" data-name="Flower 2" class="cls-1" d="M556.853,0c20.426-.28,34.547,1.351,48.373,6.919h4.147V8.3h2.764V9.686l6.91,1.384q0.692,1.384,1.382,2.768l5.529,1.384v1.384l4.146,1.384,1.382,2.768h2.764l5.529,6.919L653.6,40.13V42.9l5.528,4.151v2.768l2.764,1.384,6.911,8.3h2.764l4.146,5.535h2.764q0.692,1.384,1.382,2.768h2.764l1.383,2.768,5.528,1.384v1.384l8.292,2.768v1.384h4.147v1.384c11.049,4.407,23.432,5.558,38.7,5.535h11.057V83.027h24.878v1.384h9.674v1.384h5.529v1.384h5.528v1.384h4.146v1.384h2.765V91.33l12.438,4.151q0.692,1.384,1.382,2.767l5.529,1.384q0.69,1.384,1.382,2.768h2.764l4.146,5.535h2.765q4.145,4.844,8.292,9.687l2.764,1.383v2.768l5.529,4.151v2.768L854,130.076q0.69,2.768,1.382,5.535h1.382v2.767l2.764,1.384v4.152h1.382q0.692,2.766,1.382,5.535h1.382l1.383,8.3h1.382v5.535h1.382v5.536h1.382v9.686h1.382v8.3h1.382v5.535h1.382q1.382,6.227,2.764,12.454H877.5q1.383,4.15,2.765,8.3h1.382v2.767l2.764,1.384q0.69,2.768,1.382,5.535l4.146,2.768v2.767l5.529,4.152v2.767l2.764,1.384,4.146,5.535h2.764l4.146,5.535h2.765q1.381,2.076,2.764,4.152l5.528,1.383L921.725,256l5.529,1.384v1.384l5.528,1.383v1.384h4.146v1.384h2.764V264.3h2.765q0.69,1.383,1.382,2.767l5.528,1.384q0.692,1.383,1.382,2.768h2.764q0.692,1.383,1.382,2.767h2.765l5.528,6.919h2.764v1.384l4.146,2.767v2.768l6.911,5.535v2.768l2.764,1.384v2.767l2.764,1.384q0.692,2.767,1.382,5.535l2.765,1.384v2.767h1.382V315.5h1.382v2.767h1.382v4.152c7.318,18.349,9.79,42.711,2.764,63.654v5.535h-1.382v4.151H990.83v2.768h-1.382v4.151h-1.382v2.768h-1.382V409.6H985.3v4.151h-1.382v5.535h-1.382v6.919h-1.382v11.071h-1.382v9.686h1.382v12.454l9.675,29.06,2.764,1.383q0.691,2.768,1.382,5.536h1.382q0.692,2.075,1.382,4.151,1.383,0.692,2.76,1.384V503.7c0.93,0.462,1.85.923,2.77,1.384v2.768l4.14,2.767q0.705,2.768,1.39,5.535l2.76,1.384V520.3h1.38v2.767h1.39v4.152h1.38v2.767h1.38v4.152h1.38v4.151h1.38v5.535h1.39v5.535h1.38v12.454H1024q-0.69,13.838-1.38,27.676h-1.38v6.919h-1.39v4.151h-1.38V606.1h-1.38v2.768h-1.38v4.151h-1.38q-0.705,2.768-1.39,5.535h-1.38q-0.69,2.767-1.38,5.535c-0.92.462-1.84,0.923-2.77,1.384v2.768l-2.76,1.384v2.767c-1.84,1.384-3.69,2.768-5.528,4.152v2.767l-9.674,8.3q-1.383,2.075-2.764,4.151h-2.765l-4.146,5.535h-2.764l-5.528,6.919L960.424,673.9v2.767l-2.764,1.384v2.768l-2.765,1.383v2.768l-2.764,1.384-4.146,12.454H946.6v2.767h-1.382v4.152h-1.382v4.151h-1.382v5.535h-1.382v5.535h-1.383v12.454H938.31v9.687h1.382l1.383,30.443h-1.383v11.07H938.31v6.919h-1.382v5.535h-1.382q-0.69,4.152-1.382,8.3h-1.382l-2.764,8.3h-1.382v2.767h-1.382q-0.692,2.768-1.382,5.536l-2.765,1.383v2.768l-4.146,2.767v2.768l-6.91,5.535-11.057,12.454H898.23q-0.692,1.385-1.382,2.768L892.7,853.8v1.383h-2.764q-0.69,1.385-1.382,2.768L876.116,862.1v1.384h-2.764v1.384l-8.292,1.384v1.383h-5.529v1.384h-6.91V870.4h-9.675c-14.378,4.231-28.7,7.941-40.081,15.222q-0.69,1.383-1.382,2.767h-2.764l-2.764,4.152h-2.764l-9.675,11.07-4.146,2.767v2.768l-4.146,2.768v2.767l-2.765,1.384v2.767l-2.764,1.384q-0.69,2.768-1.382,5.535h-1.382v2.768h-1.382q-1.381,4.15-2.764,8.3H761.4v4.151h-1.382v2.768l-2.765,1.383q-0.69,2.768-1.382,5.535l-2.764,1.384v2.768l-4.146,2.767v2.768l-6.911,5.535-8.292,9.687H731q-1.383,2.075-2.765,4.151h-2.764q-0.69,1.383-1.382,2.767l-5.528,1.384q-0.692,1.385-1.382,2.768h-2.764v1.384h-2.765v1.383H707.5v1.384h-2.764v1.384h-4.146v1.384h-4.147v1.384H692.3v1.383h-6.91c-14.159,4.256-32.617,2.875-45.609-1.383l-9.675-1.384v-1.384l-6.91-1.384v-1.384h-2.765v-1.383l-13.821-2.768c-5.6-1.881-24.032-6.725-33.17-4.151v1.383l-16.585,1.384v1.384l-12.439,2.768v1.383l-8.292,2.768v1.384h-2.764v1.384l-5.529,1.383q-0.69,1.385-1.382,2.768h-2.764q-1.382,2.082-2.764,4.148c-15.89,11.06-35.525,20.75-62.194,20.76H437.993v-1.38q-6.219-.69-12.438-1.39v-1.38q-6.219-1.38-12.439-2.77v-1.38q-4.146-1.4-8.293-2.77v-1.38h-2.764c-0.461-.93-0.921-1.85-1.382-2.77q-2.764-.69-5.528-1.39l-1.383-2.76H391q-2.763-3.465-5.528-6.922H382.71q-0.691-1.383-1.382-2.767l-5.529-4.152v-2.767l-5.528-4.152V981.1q-3.454-2.767-6.911-5.535V972.8l-5.528-4.151-1.382-2.768h-2.764l-4.147-5.535h-2.764l-2.764-4.151-5.528-1.384q-0.692-1.385-1.382-2.768h-2.765v-1.384h-2.764v-1.383h-4.146v-1.384h-2.764v-1.384h-4.146v-1.384h-4.147c-6.412-2.516-27.75-8.582-38.7-5.535-4.43,1.233-28.318,3.165-34.553,1.384-15.186-4.338-29.586-7.622-41.462-15.222q-0.692-1.383-1.382-2.767h-2.765q-1.381-2.076-2.764-4.152h-2.764l-6.91-8.3-8.293-6.919v-2.768l-4.146-2.767v-2.768l-2.764-1.384q-0.691-2.768-1.382-5.535l-2.765-1.384v-2.767h-1.382V881.47h-1.382v-4.151h-1.382v-2.768h-1.382q-0.692-4.151-1.382-8.3h-1.382q-0.692-6.227-1.382-12.454h-1.382v-9.687h-1.382v-6.919H151.9v-5.535h-1.382V827.5h-1.382v-4.152h-1.382V819.2h-1.382q-0.692-2.768-1.382-5.535h-1.382q-0.692-2.767-1.382-5.535l-2.764-1.384v-2.768L136.7,802.6v-2.768l-4.146-2.768v-2.767l-5.528-4.151-11.057-12.455H113.2q-0.691-1.383-1.382-2.767h-2.764q-0.692-1.385-1.382-2.768h-2.765q-0.69-1.383-1.382-2.767L98,768v-1.384l-5.528-1.384v-1.383H88.324v-1.384L82.8,761.081V759.7H80.032L78.65,756.93l-5.528-1.384-1.382-2.768H68.975l-4.146-5.535H62.065l-4.146-5.535-8.293-6.919v-2.767l-4.146-2.768v-2.768L42.715,725.1v-2.768l-2.764-1.384-2.764-8.3H35.8v-2.768H34.423V705.73H33.041v-2.768H31.659l-1.382-9.686c-7.009-20.907-4.515-45.4,2.764-63.654V625.47h1.382V622.7H35.8v-4.152h1.382v-2.767h1.382l1.382-9.687h1.382L44.1,578.422H42.715V565.968H41.333v-6.919H39.951v-5.535H38.569v-4.152H37.187v-4.151H35.8l-2.764-8.3H31.659v-2.767H30.276l-1.382-5.536-2.764-1.383v-2.768l-4.146-2.768v-2.767l-2.764-1.384-1.382-4.151H16.456v-2.768l-2.764-1.384L12.309,503.7C3.719,487.662-4.32,460.5,2.635,437.276v-6.919H4.017v-5.535H5.4l2.764-12.454H9.545l2.764-8.3h1.382V401.3l2.764-1.383v-2.768l2.764-1.384V393l4.146-2.768v-2.768l5.528-4.151,9.675-11.07h2.764l4.146-5.535h2.764l4.146-5.535,9.675-8.3V350.1l4.146-2.767v-2.768l2.764-1.384,1.382-5.535,2.764-1.384v-2.767H74.5v-2.768h1.382v-4.151h1.382v-2.768H78.65v-4.151h1.382V315.5h1.382v-5.535H82.8v-5.536h1.382v-11.07c0.591-2.092,2.541-8.262,1.382-12.454H84.178q-0.691-13.836-1.382-27.676h1.382V240.778H85.56v-6.919h1.382v-5.535h1.382v-4.151h1.382v-4.151h1.382l2.764-8.3h1.382v-2.768h1.382L98,203.416l2.764-1.384v-2.767l2.764-1.384v-2.767l6.911-5.536v-2.767l2.764-1.384,4.146-5.535h2.764l4.147-5.535h2.764q0.69-1.385,1.382-2.768l4.146-1.384v-1.383l5.529-1.384v-1.384h2.764V164.67l8.292-2.767v-1.384l12.439-2.768v-1.383l23.5-2.768v-1.384h6.91v-1.384h4.146v-1.383h4.147v-1.384h4.146v-1.384l8.292-2.767V142.53l5.529-1.384,1.382-2.768h2.764q0.692-1.383,1.382-2.767h2.764l4.147-5.535h2.764l8.292-9.687,2.765-1.384v-2.767l4.146-2.768V110.7l2.764-1.384v-2.768l2.764-1.383q0.691-2.768,1.382-5.536h1.382V96.865h1.382V94.1H259.7V91.33h1.382V88.562h1.382V84.411l2.764-1.384,2.764-8.3,2.764-1.384V70.573l4.147-2.768c14.329-20.244,33.052-31.987,59.429-40.13h8.293V26.292c6.023-1.719,35.463-.028,40.081,1.384V29.06h5.528v1.384h4.146v1.384h4.147v1.384H399.3v1.384h4.146v1.384h2.764v1.384h4.147v1.384H414.5V40.13h5.528v1.384h8.293V42.9c6.258,1.771,23.375-.1,27.642-1.384h6.91V40.13l11.057-1.384V37.362h2.764V35.978h4.146V34.595l8.293-2.768V30.443l5.528-1.384q0.692-1.384,1.382-2.768h2.764q0.692-1.384,1.382-2.768h2.765l2.764-4.151h2.764l1.382-2.768,5.528-1.384,1.383-2.767h2.764V11.07l5.528-1.384V8.3h4.146V6.919h2.765V5.535l9.674-1.384V2.768h5.529V1.384h9.674V0Z"/>
</svg>
