<svg width="1401" height="1401" viewBox="111 111 1180 1180" fill="none" xmlns="http://www.w3.org/2000/svg">
<path d="M615.011 147.666C617.004 145.712 618.001 144.736 618.865 143.922C664.928 100.548 736.802 100.548 782.866 143.922C783.729 144.736 784.726 145.712 786.72 147.666C787.916 148.838 788.514 149.424 789.082 149.966C818.558 178.096 860.325 189.288 899.917 179.664C900.68 179.478 901.491 179.27 903.113 178.853C905.816 178.158 907.167 177.811 908.322 177.538C969.901 163.007 1032.15 198.944 1050.35 259.539C1050.69 260.675 1051.07 262.019 1051.82 264.707C1052.27 266.32 1052.49 267.127 1052.71 267.881C1064.17 306.98 1094.75 337.556 1133.85 349.017C1134.6 349.238 1135.41 349.463 1137.02 349.913C1139.71 350.663 1141.06 351.038 1142.19 351.379C1202.79 369.584 1238.72 431.829 1224.19 493.408C1223.92 494.563 1223.57 495.914 1222.88 498.617C1222.46 500.239 1222.25 501.05 1222.07 501.814C1212.44 541.405 1223.63 583.173 1251.76 612.648C1252.31 613.217 1252.89 613.815 1254.06 615.011C1256.02 617.004 1256.99 618.001 1257.81 618.865C1301.18 664.928 1301.18 736.802 1257.81 782.865C1256.99 783.729 1256.02 784.726 1254.06 786.719C1252.89 787.916 1252.31 788.514 1251.76 789.082C1223.63 818.558 1212.44 860.325 1222.07 899.916C1222.25 900.68 1222.46 901.491 1222.88 903.113C1223.57 905.816 1223.92 907.167 1224.19 908.322C1238.72 969.901 1202.79 1032.15 1142.19 1050.35C1141.06 1050.69 1139.71 1051.07 1137.02 1051.82C1135.41 1052.27 1134.6 1052.49 1133.85 1052.71C1094.75 1064.17 1064.17 1094.75 1052.71 1133.85C1052.49 1134.6 1052.27 1135.41 1051.82 1137.02C1051.07 1139.71 1050.69 1141.06 1050.35 1142.19C1032.15 1202.79 969.901 1238.72 908.322 1224.19C907.167 1223.92 905.816 1223.57 903.113 1222.88C901.491 1222.46 900.68 1222.25 899.917 1222.07C860.325 1212.44 818.558 1223.63 789.082 1251.76C788.514 1252.31 787.916 1252.89 786.72 1254.06C784.726 1256.02 783.729 1256.99 782.866 1257.81C736.802 1301.18 664.928 1301.18 618.865 1257.81C618.001 1256.99 617.004 1256.02 615.011 1254.06C613.815 1252.89 613.217 1252.31 612.648 1251.76C583.173 1223.63 541.405 1212.44 501.814 1222.07C501.05 1222.25 500.239 1222.46 498.618 1222.88C495.915 1223.57 494.563 1223.92 493.408 1224.19C431.829 1238.72 369.584 1202.79 351.38 1142.19C351.038 1141.06 350.663 1139.71 349.913 1137.02C349.464 1135.41 349.239 1134.6 349.018 1133.85C337.556 1094.75 306.98 1064.17 267.881 1052.71C267.127 1052.49 266.321 1052.27 264.708 1051.82C262.019 1051.07 260.675 1050.69 259.539 1050.35C198.944 1032.15 163.007 969.901 177.539 908.322C177.811 907.167 178.158 905.816 178.853 903.113C179.27 901.491 179.479 900.68 179.664 899.916C189.288 860.325 178.096 818.558 149.966 789.082C149.424 788.514 148.838 787.916 147.666 786.719C145.713 784.726 144.736 783.729 143.923 782.865C100.548 736.802 100.548 664.928 143.923 618.865C144.736 618.001 145.713 617.004 147.666 615.011C148.838 613.815 149.424 613.217 149.966 612.648C178.096 583.173 189.288 541.405 179.664 501.814C179.479 501.05 179.27 500.239 178.853 498.617C178.158 495.914 177.811 494.563 177.539 493.408C163.007 431.829 198.944 369.584 259.539 351.379C260.675 351.038 262.019 350.663 264.708 349.913C266.321 349.463 267.127 349.238 267.881 349.017C306.98 337.556 337.556 306.98 349.018 267.881C349.239 267.127 349.464 266.321 349.913 264.707C350.663 262.019 351.038 260.675 351.38 259.539C369.584 198.944 431.829 163.007 493.408 177.538C494.563 177.811 495.915 178.158 498.618 178.853C500.239 179.27 501.05 179.478 501.814 179.664C541.406 189.288 583.173 178.096 612.648 149.966C613.217 149.424 613.815 148.838 615.011 147.666Z" fill="#000000"/>
</svg>
